M48
; DRILL file {KiCad (7.0.0-0)} date Thursday, 11 January 2024 at 11:42:19
; FORMAT={-:-/ absolute / metric / decimal}
; #@! TF.CreationDate,2024-01-11T11:42:19+09:00
; #@! TF.GenerationSoftware,Kicad,Pcbnew,(7.0.0-0)
; #@! TF.FileFunction,Plated,1,2,PTH
FMAT,2
METRIC
; #@! TA.AperFunction,Plated,PTH,ViaDrill
T1C0.400
; #@! TA.AperFunction,Plated,PTH,ComponentDrill
T2C1.020
; #@! TA.AperFunction,Plated,PTH,ComponentDrill
T3C1.200
; #@! TA.AperFunction,Plated,PTH,ComponentDrill
T4C3.200
%
G90
G05
T1
X106.21Y-101.97
X106.68Y-91.44
X107.68Y-116.84
X107.95Y-76.2
X107.95Y-113.03
X107.95Y-127.0
X109.22Y-109.22
X109.22Y-116.84
X109.705Y-112.778
X110.92Y-92.67
X110.975Y-112.025
X111.76Y-121.92
X111.76Y-130.81
X112.25Y-111.075
X112.649Y-90.932
X112.69Y-101.85
X113.03Y-77.47
X113.411Y-83.312
X113.547Y-110.322
X113.665Y-93.853
X114.785Y-109.569
X115.57Y-69.85
X115.57Y-74.93
X115.57Y-80.01
X115.57Y-86.36
X115.57Y-92.71
X115.57Y-116.84
X116.025Y-108.628
X117.3Y-121.8
X117.325Y-107.853
X117.983Y-91.694
X118.237Y-96.901
X118.6Y-106.978
X119.35Y-75.35
X119.38Y-85.09
X119.675Y-126.746
X119.94Y-73.31
X120.65Y-92.71
X120.7Y-127.65
X121.285Y-117.856
X121.325Y-125.725
X121.6Y-130.45
X121.625Y-128.525
X121.84Y-96.84
X121.89Y-88.38
X121.95Y-80.02
X122.45Y-129.3
X122.46Y-131.25
X122.875Y-74.925
X123.19Y-85.09
X124.11Y-131.3
X124.46Y-68.58
X124.46Y-72.39
X124.46Y-93.98
X125.45Y-124.125
X125.73Y-80.01
X125.73Y-105.41
X125.73Y-114.3
X125.9Y-69.925
X126.45Y-74.2
X126.755Y-70.678
X127.0Y-116.84
X128.27Y-76.2
X128.27Y-81.28
X128.27Y-86.36
X128.27Y-90.17
X128.43Y-112.7
X129.54Y-93.98
X129.54Y-121.92
X129.7Y-111.947
X130.975Y-110.997
X132.5Y-110.244
X133.51Y-109.491
X134.75Y-108.55
X136.05Y-107.775
X136.271Y-121.92
X137.16Y-80.01
X137.325Y-106.9
X137.81Y-68.44
X137.85Y-72.03
X138.26Y-127.11
X138.575Y-105.85
X138.6Y-117.88
X139.192Y-122.428
X139.7Y-125.73
X139.725Y-104.7
X139.92Y-113.81
X142.24Y-130.81
X142.25Y-85.43
X142.367Y-119.507
X143.002Y-122.809
X143.764Y-125.73
X143.95Y-113.575
X144.075Y-124.125
X144.75Y-130.55
X144.78Y-102.87
X144.78Y-115.57
X144.907Y-82.042
X146.05Y-116.84
X146.291Y-120.85
X147.055Y-112.625
X147.193Y-72.136
X147.84Y-85.39
X148.325Y-111.75
X149.575Y-111.0
X150.704Y-84.553
X150.875Y-110.25
X151.13Y-68.58
X151.13Y-93.98
X151.13Y-121.92
X151.13Y-130.81
X151.728Y-84.078
X152.125Y-109.475
X152.4Y-83.3
X152.95Y-89.09
X153.4Y-108.55
X153.42Y-131.05
X154.44Y-97.63
X154.6Y-89.675
X154.658Y-91.358
X154.675Y-107.775
X155.4Y-90.55
X155.925Y-106.85
X156.8Y-109.275
X157.48Y-81.28
X157.48Y-107.95
X157.48Y-116.84
X158.12Y-94.01
X158.42Y-87.27
X158.492Y-104.642
X158.496Y-122.555
X158.75Y-102.87
X158.75Y-113.03
X158.75Y-125.73
X158.985Y-108.155
X159.372Y-105.403
X160.02Y-95.25
X160.467Y-102.358
X161.16Y-84.6
X161.29Y-78.74
X161.29Y-111.76
X161.29Y-111.76
X161.29Y-128.27
X161.64Y-90.41
X161.671Y-108.204
X161.72Y-82.26
X162.56Y-68.58
X162.56Y-125.73
X162.56Y-130.81
X162.75Y-123.575
X163.068Y-91.694
X163.703Y-98.806
X164.19Y-87.94
X164.25Y-74.91
X164.465Y-101.854
X164.592Y-80.137
X164.592Y-94.996
X164.719Y-116.459
X164.973Y-114.046
X164.973Y-119.888
X165.05Y-128.15
X165.1Y-82.169
X165.735Y-104.14
X165.735Y-110.363
X165.862Y-106.807
X165.989Y-71.247
X166.2Y-121.9
X168.64Y-127.85
X168.91Y-104.14
X169.56Y-120.09
X169.99Y-74.88
X170.0Y-80.0
X170.0Y-82.5
X170.0Y-85.0
X170.0Y-87.5
X170.0Y-90.0
X170.0Y-92.5
X170.0Y-95.0
X170.0Y-112.5
X170.053Y-116.713
X170.1Y-68.57
X170.43Y-124.97
X170.44Y-131.25
X171.325Y-115.189
X171.45Y-99.06
X171.45Y-104.14
X172.25Y-121.525
X172.339Y-117.983
X172.72Y-87.63
X173.91Y-127.43
X176.53Y-73.66
X177.78Y-128.63
X178.816Y-124.587
X180.34Y-120.65
X182.5Y-80.0
X182.5Y-85.0
X182.5Y-89.07
X182.5Y-92.5
X182.5Y-97.5
X182.5Y-110.0
X182.9Y-128.2
X183.007Y-117.856
X183.12Y-104.32
X183.13Y-101.85
X183.19Y-106.97
X183.43Y-99.22
X185.42Y-121.92
X185.42Y-127.0
X187.32Y-130.0
X187.505Y-119.78
X187.833Y-124.079
X188.16Y-71.17
T2
X167.67Y-69.835
X167.67Y-72.375
X167.67Y-74.915
X167.67Y-77.455
X167.67Y-79.995
X167.67Y-82.535
X167.67Y-85.075
X167.67Y-87.615
X167.67Y-90.155
X167.67Y-92.695
X167.67Y-95.235
X167.67Y-97.775
X167.67Y-100.315
X167.67Y-102.855
X167.67Y-105.395
X167.67Y-107.935
X167.67Y-110.475
X167.67Y-113.015
X167.67Y-115.555
X167.67Y-118.095
X185.45Y-69.835
X185.45Y-72.375
X185.45Y-74.915
X185.45Y-77.455
X185.45Y-79.995
X185.45Y-82.535
X185.45Y-85.075
X185.45Y-87.615
X185.45Y-90.155
X185.45Y-92.695
X185.45Y-95.235
X185.45Y-97.775
X185.45Y-100.315
X185.45Y-102.855
X185.45Y-105.395
X185.45Y-107.935
X185.45Y-110.475
X185.45Y-113.015
X185.45Y-115.555
X185.45Y-118.095
T3
X106.773Y-80.001
X106.773Y-82.286
X106.773Y-84.572
X106.773Y-86.858
X106.773Y-89.144
X109.313Y-81.144
X109.313Y-83.429
X109.313Y-85.715
X109.313Y-88.001
X109.313Y-90.287
X111.853Y-80.001
X111.853Y-82.286
X111.853Y-84.572
X111.853Y-86.858
X111.853Y-89.144
T4
X109.313Y-72.326
X109.313Y-97.326
T0
M30
