G04 #@! TF.GenerationSoftware,KiCad,Pcbnew,(7.0.0-0)*
G04 #@! TF.CreationDate,2024-01-11T11:42:18+09:00*
G04 #@! TF.ProjectId,AppleVGA_mini_kmm,4170706c-6556-4474-915f-6d696e695f6b,1.0*
G04 #@! TF.SameCoordinates,Original*
G04 #@! TF.FileFunction,Soldermask,Top*
G04 #@! TF.FilePolarity,Negative*
%FSLAX46Y46*%
G04 Gerber Fmt 4.6, Leading zero omitted, Abs format (unit mm)*
G04 Created by KiCad (PCBNEW (7.0.0-0)) date 2024-01-11 11:42:18*
%MOMM*%
%LPD*%
G01*
G04 APERTURE LIST*
G04 Aperture macros list*
%AMRoundRect*
0 Rectangle with rounded corners*
0 $1 Rounding radius*
0 $2 $3 $4 $5 $6 $7 $8 $9 X,Y pos of 4 corners*
0 Add a 4 corners polygon primitive as box body*
4,1,4,$2,$3,$4,$5,$6,$7,$8,$9,$2,$3,0*
0 Add four circle primitives for the rounded corners*
1,1,$1+$1,$2,$3*
1,1,$1+$1,$4,$5*
1,1,$1+$1,$6,$7*
1,1,$1+$1,$8,$9*
0 Add four rect primitives between the rounded corners*
20,1,$1+$1,$2,$3,$4,$5,0*
20,1,$1+$1,$4,$5,$6,$7,0*
20,1,$1+$1,$6,$7,$8,$9,0*
20,1,$1+$1,$8,$9,$2,$3,0*%
G04 Aperture macros list end*
%ADD10C,0.050000*%
%ADD11RoundRect,0.381000X0.381000X3.175000X-0.381000X3.175000X-0.381000X-3.175000X0.381000X-3.175000X0*%
%ADD12O,1.700000X1.700000*%
%ADD13R,1.700000X1.700000*%
%ADD14RoundRect,0.250000X0.625000X-0.400000X0.625000X0.400000X-0.625000X0.400000X-0.625000X-0.400000X0*%
%ADD15C,4.200000*%
%ADD16C,1.600000*%
%ADD17RoundRect,0.150000X-0.150000X0.875000X-0.150000X-0.875000X0.150000X-0.875000X0.150000X0.875000X0*%
%ADD18RoundRect,0.250000X-0.412500X-0.650000X0.412500X-0.650000X0.412500X0.650000X-0.412500X0.650000X0*%
%ADD19RoundRect,0.250000X-0.650000X0.412500X-0.650000X-0.412500X0.650000X-0.412500X0.650000X0.412500X0*%
G04 APERTURE END LIST*
D10*
X120015000Y-133350000D02*
X184785000Y-133350000D01*
X184785000Y-133350000D02*
X184785000Y-140843000D01*
X184785000Y-140843000D02*
X120015000Y-140843000D01*
X120015000Y-140843000D02*
X120015000Y-133350000D01*
G36*
X120015000Y-133350000D02*
G01*
X184785000Y-133350000D01*
X184785000Y-140843000D01*
X120015000Y-140843000D01*
X120015000Y-133350000D01*
G37*
D11*
X121920000Y-136525000D03*
X124460000Y-136525000D03*
X127000000Y-136525000D03*
X129540000Y-136525000D03*
X132080000Y-136525000D03*
X134620000Y-136525000D03*
X137160000Y-136525000D03*
X139700000Y-136525000D03*
X142240000Y-136525000D03*
X144780000Y-136525000D03*
X147320000Y-136525000D03*
X149860000Y-136525000D03*
X152400000Y-136525000D03*
X154940000Y-136525000D03*
X157480000Y-136525000D03*
X160020000Y-136525000D03*
X162560000Y-136525000D03*
X165100000Y-136525000D03*
X167640000Y-136525000D03*
X170180000Y-136525000D03*
X172720000Y-136525000D03*
X175260000Y-136525000D03*
X177800000Y-136525000D03*
X180340000Y-136525000D03*
X182880000Y-136525000D03*
D12*
X167669999Y-69834999D03*
X167669999Y-72374999D03*
D13*
X167669999Y-74914999D03*
D12*
X167669999Y-77454999D03*
X167669999Y-79994999D03*
X167669999Y-82534999D03*
X167669999Y-85074999D03*
D13*
X167669999Y-87614999D03*
D12*
X167669999Y-90154999D03*
X167669999Y-92694999D03*
X167669999Y-95234999D03*
X167669999Y-97774999D03*
D13*
X167669999Y-100314999D03*
D12*
X167669999Y-102854999D03*
X167669999Y-105394999D03*
X167669999Y-107934999D03*
X167669999Y-110474999D03*
D13*
X167669999Y-113014999D03*
D12*
X167669999Y-115554999D03*
X167669999Y-118094999D03*
X185449999Y-118094999D03*
X185449999Y-115554999D03*
D13*
X185449999Y-113014999D03*
D12*
X185449999Y-110474999D03*
X185449999Y-107934999D03*
X185449999Y-105394999D03*
X185449999Y-102854999D03*
D13*
X185449999Y-100314999D03*
D12*
X185449999Y-97774999D03*
X185449999Y-95234999D03*
X185449999Y-92694999D03*
X185449999Y-90154999D03*
D13*
X185449999Y-87614999D03*
D12*
X185449999Y-85074999D03*
X185449999Y-82534999D03*
X185449999Y-79994999D03*
X185449999Y-77454999D03*
D13*
X185449999Y-74914999D03*
D12*
X185449999Y-72374999D03*
X185449999Y-69834999D03*
D14*
X162125000Y-100875000D03*
X162125000Y-97775000D03*
X121875000Y-81550000D03*
X121875000Y-78450000D03*
X121875000Y-89925000D03*
X121875000Y-86825000D03*
X125550000Y-89925000D03*
X125550000Y-86825000D03*
X118200000Y-81550000D03*
X118200000Y-78450000D03*
X142175000Y-118000000D03*
X142175000Y-114900000D03*
D15*
X109312988Y-72326500D03*
X109312988Y-97326500D03*
D16*
X111852988Y-89144500D03*
X111852988Y-86858500D03*
X111852988Y-84572500D03*
X111852988Y-82286500D03*
X111852988Y-80000500D03*
X109312988Y-90287500D03*
X109312988Y-88001500D03*
X109312988Y-85715500D03*
X109312988Y-83429500D03*
X109312988Y-81143500D03*
X106772988Y-89144500D03*
X106772988Y-86858500D03*
X106772988Y-84572500D03*
X106772988Y-82286500D03*
X106772988Y-80000500D03*
D14*
X168650000Y-126275000D03*
X168650000Y-123175000D03*
D17*
X138590000Y-114825000D03*
X137320000Y-114825000D03*
X136050000Y-114825000D03*
X134780000Y-114825000D03*
X133510000Y-114825000D03*
X132240000Y-114825000D03*
X130970000Y-114825000D03*
X129700000Y-114825000D03*
X128430000Y-114825000D03*
X127160000Y-114825000D03*
X127160000Y-124125000D03*
X128430000Y-124125000D03*
X129700000Y-124125000D03*
X130970000Y-124125000D03*
X132240000Y-124125000D03*
X133510000Y-124125000D03*
X134780000Y-124125000D03*
X136050000Y-124125000D03*
X137320000Y-124125000D03*
X138590000Y-124125000D03*
D14*
X121875000Y-73025000D03*
X121875000Y-69925000D03*
X118200000Y-73025000D03*
X118200000Y-69925000D03*
X161025000Y-117950000D03*
X161025000Y-114850000D03*
D18*
X180657500Y-125710000D03*
X183782500Y-125710000D03*
D14*
X118225000Y-98425000D03*
X118225000Y-95325000D03*
D19*
X172225000Y-123175000D03*
X172225000Y-126300000D03*
D17*
X157215000Y-114750000D03*
X155945000Y-114750000D03*
X154675000Y-114750000D03*
X153405000Y-114750000D03*
X152135000Y-114750000D03*
X150865000Y-114750000D03*
X149595000Y-114750000D03*
X148325000Y-114750000D03*
X147055000Y-114750000D03*
X145785000Y-114750000D03*
X145785000Y-124050000D03*
X147055000Y-124050000D03*
X148325000Y-124050000D03*
X149595000Y-124050000D03*
X150865000Y-124050000D03*
X152135000Y-124050000D03*
X153405000Y-124050000D03*
X154675000Y-124050000D03*
X155945000Y-124050000D03*
X157215000Y-124050000D03*
D14*
X123425000Y-117912500D03*
X123425000Y-114812500D03*
X162160000Y-106570000D03*
X162160000Y-103470000D03*
X121900000Y-98425000D03*
X121900000Y-95325000D03*
X164975000Y-126275000D03*
X164975000Y-123175000D03*
X118200000Y-89925000D03*
X118200000Y-86825000D03*
X125575000Y-98425000D03*
X125575000Y-95325000D03*
D19*
X161000000Y-121075000D03*
X161000000Y-124200000D03*
X142175000Y-121125000D03*
X142175000Y-124250000D03*
X123425000Y-121037500D03*
X123425000Y-124162500D03*
D14*
X125550000Y-81550000D03*
X125550000Y-78450000D03*
D17*
X119865000Y-114875000D03*
X118595000Y-114875000D03*
X117325000Y-114875000D03*
X116055000Y-114875000D03*
X114785000Y-114875000D03*
X113515000Y-114875000D03*
X112245000Y-114875000D03*
X110975000Y-114875000D03*
X109705000Y-114875000D03*
X108435000Y-114875000D03*
X108435000Y-124175000D03*
X109705000Y-124175000D03*
X110975000Y-124175000D03*
X112245000Y-124175000D03*
X113515000Y-124175000D03*
X114785000Y-124175000D03*
X116055000Y-124175000D03*
X117325000Y-124175000D03*
X118595000Y-124175000D03*
X119865000Y-124175000D03*
D19*
X175725000Y-123175000D03*
X175725000Y-126300000D03*
M02*
